<svg id="Layer_2" enable-background="new 0 0 64 64" height="512" viewBox="0 0 64 64" width="512" xmlns="http://www.w3.org/2000/svg"><path d="m40.215 48.594h-18.145c-2.607 0-4.809-2.814-4.809-6.146v-21.888h-6.147v21.887c0 6.781 4.915 12.295 10.956 12.295h18.145l-6 6.123h6l9.776-9.196-9.776-9.198h-6z" fill="#52b8d9"/><path d="m40.215 61.365h-6c-.201 0-.383-.121-.461-.307s-.037-.399.104-.543l5.167-5.273h-16.955c-6.317 0-11.457-5.74-11.457-12.795v-21.886c0-.276.224-.5.5-.5h6.147c.276 0 .5.224.5.5v21.887c0 3.061 1.973 5.646 4.309 5.646h16.955l-5.167-5.273c-.141-.144-.182-.357-.104-.543s.26-.307.461-.307h6c.127 0 .25.049.343.136l9.776 9.198c.1.095.157.227.157.364s-.057.27-.157.364l-9.776 9.196c-.092.087-.214.136-.342.136zm-4.81-1h4.612l9.245-8.696-9.245-8.698h-4.612l5.167 5.273c.141.144.182.357.104.543s-.26.307-.461.307h-18.145c-2.878 0-5.309-3.044-5.309-6.646v-21.387h-5.147v21.387c0 6.504 4.691 11.795 10.457 11.795h18.145c.201 0 .383.121.461.307s.037.399-.104.543z" fill="#63312d"/><path d="m34.215 48.594h-18.145c-2.607 0-4.809-2.814-4.809-6.146v-21.888h-6.147v21.887c0 6.781 4.915 12.295 10.956 12.295h18.145v6.123l9.776-9.196-9.776-9.198z" fill="#82d9ff"/><path d="m7.114 42.447v-19.984h4.147v-1.903h-6.147v21.887c0 6.781 4.915 12.295 10.956 12.295h2c-6.041 0-10.956-5.513-10.956-12.295z" fill="#caf4ff"/><path d="m34.215 61.365c-.067 0-.134-.014-.198-.041-.183-.079-.302-.26-.302-.459v-5.623h-17.645c-6.317 0-11.457-5.74-11.457-12.795v-21.886c0-.276.224-.5.5-.5h6.147c.276 0 .5.224.5.5v21.887c0 3.061 1.973 5.646 4.309 5.646h17.645v-5.623c0-.199.119-.38.302-.459.184-.079.396-.042.541.095l9.776 9.198c.1.095.157.227.157.364s-.057.27-.157.364l-9.776 9.196c-.094.089-.217.136-.342.136zm-28.601-40.304v21.387c0 6.504 4.691 11.795 10.457 11.795h18.145c.276 0 .5.224.5.5v4.966l8.547-8.039-8.547-8.041v4.966c0 .276-.224.5-.5.5h-18.146c-2.878 0-5.309-3.044-5.309-6.646v-21.388z" fill="#63312d"/><path d="m23.785 15.406h18.145c2.607 0 4.809 2.814 4.809 6.146v21.887h6.147v-21.886c0-6.781-4.915-12.295-10.957-12.295h-18.144v-6.123l-9.776 9.196 9.776 9.198z" fill="#f9dd9d"/><path d="m29.785 15.406h18.145c2.607 0 4.809 2.814 4.809 6.146v21.887h6.147v-21.886c0-6.781-4.915-12.295-10.957-12.295h-18.144v-6.123h-6l-3.776 9.196 3.776 9.198h6z" fill="#52b8d9"/><path d="m58.886 43.939h-6.147c-.276 0-.5-.224-.5-.5v-21.886c0-3.061-1.973-5.646-4.309-5.646h-17.645v5.623c0 .276-.224.5-.5.5h-6c-.203 0-.386-.122-.462-.311l-3.776-9.198c-.05-.121-.05-.258 0-.379l3.776-9.196c.077-.188.26-.311.462-.311h6c.276 0 .5.224.5.5v5.623h17.645c6.317 0 11.457 5.74 11.457 12.795v21.887c-.001.276-.224.499-.501.499zm-5.647-1h5.147v-21.386c0-6.504-4.691-11.795-10.457-11.795h-18.144c-.276 0-.5-.224-.5-.5v-5.623h-5.165l-3.571 8.696 3.571 8.698h5.165v-5.623c0-.276.224-.5.5-.5h18.145c2.878 0 5.309 3.044 5.309 6.646z" fill="#63312d"/><path d="m23.785 15.406h18.145c2.607 0 4.809 2.814 4.809 6.146v21.887h6.147v-21.886c0-6.781-4.915-12.295-10.957-12.295h-18.144v-6.123l-9.776 9.196 9.776 9.198z" fill="#82d9ff"/><path d="m16.258 12.331 7.527-7.08v-2.116l-9.777 9.196 9.777 9.198v-2.117z" fill="#caf4ff"/><path d="m52.886 43.939h-6.147c-.276 0-.5-.224-.5-.5v-21.886c0-3.061-1.973-5.646-4.309-5.646h-17.645v5.623c0 .199-.119.38-.302.459-.184.079-.395.042-.541-.095l-9.776-9.198c-.1-.095-.157-.227-.157-.364s.057-.27.157-.364l9.776-9.196c.146-.137.357-.173.541-.095.183.079.302.26.302.459v5.623h17.645c6.317 0 11.457 5.74 11.457 12.795v21.887c-.001.275-.224.498-.501.498zm-5.647-1h5.147v-21.386c0-6.504-4.691-11.795-10.457-11.795h-18.144c-.276 0-.5-.224-.5-.5v-4.966l-8.547 8.039 8.547 8.041v-4.966c0-.276.224-.5.5-.5h18.145c2.878 0 5.309 3.044 5.309 6.646z" fill="#63312d"/></svg>